<svg xmlns="http://www.w3.org/2000/svg" width="548.180908203125" height="547.2647094726562" viewBox="-85.70582580566406 -102.20531463623047 548.180908203125 547.2647094726562"><title>Neo4j Graph Visualization</title><desc>Created using Neo4j (http://www.neo4j.com/)</desc><g class="layer relationships"><g class="relationship" transform="translate(21.200900190803072 299.202926317455) rotate(342.6325951485885)"><path class="outline" fill="#A5ABB6" stroke="none" data-darkreader-inline-fill="" data-darkreader-inline-stroke="" style="--darkreader-inline-fill:#b2aca2; --darkreader-inline-stroke:none;" d="M 24.018736134675446,-6.953439040707552 L 24.277555179777966,-5.987513214418485 A 206.66939483554305 206.66939483554305 0 0 1 64.53149808852417,-12.605319193347754 L 64.46745361534498,-13.603266238764093 A 207.66939483554305 207.66939483554305 0 0 0 24.018736134675446,-6.953439040707552 Z M 86.50885795108817,-13.845548281812484 L 86.46676543497628,-12.846434564517295 A 206.66939483554305 206.66939483554305 0 0 1 126.85645202129824,-7.115074068611109 L 126.14388031046512,-4.200928986958452 L 133.7748858302933,-5.938097590275948 L 127.8065476357424,-11.000600844147984 L 127.09397592490929,-8.086455762495328 A 207.66939483554305 207.66939483554305 0 0 0 86.50885795108817,-13.845548281812484"/><text text-anchor="middle" pointer-events="none" font-size="8px" fill="#000000" data-darkreader-inline-fill="" style="--darkreader-inline-fill:#e3e1de;" x="75.49043467084185" y="-10.517087382378406" font-family="sans-serif">祖父</text></g><g class="relationship" transform="translate(172.0544458556098 252.02252152772977) rotate(500.7358724831061)"><path class="outline" fill="#A5ABB6" stroke="none" data-darkreader-inline-fill="" data-darkreader-inline-stroke="" style="--darkreader-inline-fill:#b2aca2; --darkreader-inline-stroke:none;" d="M 24.018736134675446,-6.953439040707552 L 24.277555179777966,-5.987513214418485 A 205.63020095005544 205.63020095005544 0 0 1 64.26689107824109,-12.568041810359148 L 64.20254412777108,-13.565969397895032 A 206.63020095005544 206.63020095005544 0 0 0 24.018736134675446,-6.953439040707552 Z M 86.24410270048509,-13.809033914776933 L 86.2017781263117,-12.809930001051725 A 205.63020095005544 205.63020095005544 0 0 1 126.32650588735136,-7.1128637117625555 L 125.61414060888772,-4.198668160664549 L 133.24502305299066,-5.936377320530382 L 127.27632625863622,-10.99845777989323 L 126.56396098017258,-8.084262228795223 A 206.63020095005544 206.63020095005544 0 0 0 86.24410270048509,-13.809033914776933"/><text text-anchor="middle" pointer-events="none" font-size="8px" fill="#000000" data-darkreader-inline-fill="" style="--darkreader-inline-fill:#e3e1de;" x="75.22559334328098" y="-10.481660108498488" transform="rotate(180 75.22559334328098 -13.481660108498488)" font-family="sans-serif">好友</text></g><g class="relationship" transform="translate(172.0544458556098 252.02252152772977) rotate(200.24189321467696)"><path class="outline" fill="#A5ABB6" stroke="none" data-darkreader-inline-fill="" data-darkreader-inline-stroke="" style="--darkreader-inline-fill:#b2aca2; --darkreader-inline-stroke:none;" d="M 25 0.5 L 37.782472531401794 0.5 L 37.782472531401794 -0.5 L 25 -0.5 Z M 59.782472531401794 0.5 L 72.56494506280359 0.5 L 72.56494506280359 3.5 L 79.56494506280359 0 L 72.56494506280359 -3.5 L 72.56494506280359 -0.5 L 59.782472531401794 -0.5 Z"/><text text-anchor="middle" pointer-events="none" font-size="8px" fill="#000000" data-darkreader-inline-fill="" style="--darkreader-inline-fill:#e3e1de;" x="48.782472531401794" y="3" transform="rotate(180 48.782472531401794 0)" font-family="sans-serif">同事</text></g><g class="relationship" transform="translate(172.0544458556098 252.02252152772977) rotate(253.95150620441729)"><path class="outline" fill="#A5ABB6" stroke="none" data-darkreader-inline-fill="" data-darkreader-inline-stroke="" style="--darkreader-inline-fill:#b2aca2; --darkreader-inline-stroke:none;" d="M 24.018736134675446,-6.953439040707552 L 24.277555179777966,-5.987513214418485 A 184.42288854909424 184.42288854909424 0 0 1 58.87397600597036,-11.803171916428028 L 58.802749841005294,-12.800632107826345 A 185.42288854909424 185.42288854909424 0 0 0 24.018736134675446,-6.953439040707552 Z M 80.84769182016436,-13.060824611658262 L 80.80002790553,-12.061961181933412 A 184.42288854909424 184.42288854909424 0 0 1 115.52407429144066,-7.06447954511042 L 114.81622782707807,-4.149183096567086 L 122.4444070821022,-5.898720536354928 L 116.46786957725745,-10.951541476501532 L 115.76002311289486,-8.036245027958199 A 185.42288854909424 185.42288854909424 0 0 0 80.84769182016436,-13.060824611658262"/><text text-anchor="middle" pointer-events="none" font-size="8px" fill="#000000" data-darkreader-inline-fill="" style="--darkreader-inline-fill:#e3e1de;" x="69.82725134951174" y="-9.7586916128258" transform="rotate(180 69.82725134951174 -12.7586916128258)" font-family="sans-serif">大哥</text></g><g class="relationship" transform="translate(172.0544458556098 252.02252152772977) rotate(385.1771022741866)"><path class="outline" fill="#A5ABB6" stroke="none" data-darkreader-inline-fill="" data-darkreader-inline-stroke="" style="--darkreader-inline-fill:#b2aca2; --darkreader-inline-stroke:none;" d="M 24.018736134675446,-6.953439040707552 L 24.277555179777966,-5.987513214418485 A 156.99446591274375 156.99446591274375 0 0 1 51.9229382374761,-10.798823901698398 L 51.84021064182036,-11.795396099242083 A 157.99446591274375 157.99446591274375 0 0 0 24.018736134675446,-6.953439040707552 Z M 73.89025821366138,-12.081589286891557 L 73.83342365791862,-11.083205676612664 A 156.99446591274375 156.99446591274375 0 0 1 101.59436736270324,-6.991027826594935 L 100.89338110406537,-4.074074233340344 L 108.51742345673694,-5.84155215531565 L 102.52901570755374,-10.880299284267723 L 101.82802944891587,-7.963345691013132 A 157.99446591274375 157.99446591274375 0 0 0 73.89025821366138,-12.081589286891557"/><text text-anchor="middle" pointer-events="none" font-size="8px" fill="#000000" data-darkreader-inline-fill="" style="--darkreader-inline-fill:#e3e1de;" x="62.866724276715416" y="-8.823705751304658" font-family="sans-serif">对手</text></g><g class="relationship" transform="translate(172.0544458556098 252.02252152772977) rotate(313.69360197526106)"><path class="outline" fill="#A5ABB6" stroke="none" data-darkreader-inline-fill="" data-darkreader-inline-stroke="" style="--darkreader-inline-fill:#b2aca2; --darkreader-inline-stroke:none;" d="M 25 0.5 L 60.15898876338217 0.5 L 60.15898876338217 -0.5 L 25 -0.5 Z M 82.15898876338217 0.5 L 117.31797752676434 0.5 L 117.31797752676434 3.5 L 124.31797752676434 0 L 117.31797752676434 -3.5 L 117.31797752676434 -0.5 L 82.15898876338217 -0.5 Z"/><text text-anchor="middle" pointer-events="none" font-size="8px" fill="#000000" data-darkreader-inline-fill="" style="--darkreader-inline-fill:#e3e1de;" x="71.15898876338217" y="3" font-family="sans-serif">弟弟</text></g><g class="relationship" transform="translate(172.0544458556098 252.02252152772977) rotate(407.65804229152656)"><path class="outline" fill="#A5ABB6" stroke="none" data-darkreader-inline-fill="" data-darkreader-inline-stroke="" style="--darkreader-inline-fill:#b2aca2; --darkreader-inline-stroke:none;" d="M 25 0.5 L 62.841106155284805 0.5 L 62.841106155284805 -0.5 L 25 -0.5 Z M 84.8411061552848 0.5 L 122.68221231056961 0.5 L 122.68221231056961 3.5 L 129.6822123105696 0 L 122.68221231056961 -3.5 L 122.68221231056961 -0.5 L 84.8411061552848 -0.5 Z"/><text text-anchor="middle" pointer-events="none" font-size="8px" fill="#000000" data-darkreader-inline-fill="" style="--darkreader-inline-fill:#e3e1de;" x="73.8411061552848" y="3" font-family="sans-serif">二子</text></g><g class="relationship" transform="translate(172.0544458556098 252.02252152772977) rotate(522.6325951485885)"><path class="outline" fill="#A5ABB6" stroke="none" data-darkreader-inline-fill="" data-darkreader-inline-stroke="" style="--darkreader-inline-fill:#b2aca2; --darkreader-inline-stroke:none;" d="M 24.018736134675446,-6.953439040707552 L 24.277555179777966,-5.987513214418485 A 206.66939483554305 206.66939483554305 0 0 1 56.57903657217561,-11.940572260785672 L 56.47651295445411,-12.935302831246474 A 207.66939483554305 207.66939483554305 0 0 0 24.018736134675446,-6.953439040707552 Z M 94.51255071360964,-13.353400008603302 L 94.43191764717325,-12.356656155551235 A 206.66939483554305 206.66939483554305 0 0 1 126.85645202129824,-7.115074068611109 L 126.14388031046512,-4.200928986958452 L 133.7748858302933,-5.938097590275948 L 127.8065476357424,-11.000600844147984 L 127.09397592490929,-8.086455762495328 A 207.66939483554305 207.66939483554305 0 0 0 94.51255071360964,-13.353400008603302"/><text text-anchor="middle" pointer-events="none" font-size="8px" fill="#000000" data-darkreader-inline-fill="" style="--darkreader-inline-fill:#e3e1de;" x="75.49043467084185" y="-10.517087382378406" transform="rotate(180 75.49043467084185 -13.517087382378406)" font-family="sans-serif">关兴庶子</text></g><g class="relationship" transform="translate(172.0544458556098 252.02252152772977) rotate(430.4726259482958)"><path class="outline" fill="#A5ABB6" stroke="none" data-darkreader-inline-fill="" data-darkreader-inline-stroke="" style="--darkreader-inline-fill:#b2aca2; --darkreader-inline-stroke:none;" d="M 24.018736134675446,-6.953439040707552 L 24.277555179777966,-5.987513214418485 A 177.39462179548255 177.39462179548255 0 0 1 49.15020024772405,-10.779882876416053 L 49.03159202083124,-11.772824006852971 A 178.39462179548255 178.39462179548255 0 0 0 24.018736134675446,-6.953439040707552 Z M 87.06321246745703,-12.232393643162737 L 86.96863253842984,-11.236876372079422 A 177.39462179548255 177.39462179548255 0 0 1 111.94981880370867,-7.0469345547385025 L 111.24361097313567,-4.131240726498405 L 118.87080570803106,-5.885065254774882 L 112.89142924447265,-10.9345263257253 L 112.18522141389965,-8.018832497485201 A 178.39462179548255 178.39462179548255 0 0 0 87.06321246745703,-12.232393643162737"/><text text-anchor="middle" pointer-events="none" font-size="8px" fill="#000000" data-darkreader-inline-fill="" style="--darkreader-inline-fill:#e3e1de;" x="68.04116100501165" y="-9.519101689309423" font-family="sans-serif">关兴之子</text></g><g class="relationship" transform="translate(172.0544458556098 252.02252152772977) rotate(480.9039608909787)"><path class="outline" fill="#A5ABB6" stroke="none" data-darkreader-inline-fill="" data-darkreader-inline-stroke="" style="--darkreader-inline-fill:#b2aca2; --darkreader-inline-stroke:none;" d="M 25 0.5 L 73.22178090770609 0.5 L 73.22178090770609 -0.5 L 25 -0.5 Z M 95.22178090770609 0.5 L 143.44356181541218 0.5 L 143.44356181541218 3.5 L 150.44356181541218 0 L 143.44356181541218 -3.5 L 143.44356181541218 -0.5 L 95.22178090770609 -0.5 Z"/><text text-anchor="middle" pointer-events="none" font-size="8px" fill="#000000" data-darkreader-inline-fill="" style="--darkreader-inline-fill:#e3e1de;" x="84.22178090770609" y="3" transform="rotate(180 84.22178090770609 0)" font-family="sans-serif">女儿</text></g><g class="relationship" transform="translate(172.0544458556098 252.02252152772977) rotate(469.38279721102134)"><path class="outline" fill="#A5ABB6" stroke="none" data-darkreader-inline-fill="" data-darkreader-inline-stroke="" style="--darkreader-inline-fill:#b2aca2; --darkreader-inline-stroke:none;" d="M 25 0.5 L 47.1227779475326 0.5 L 47.1227779475326 -0.5 L 25 -0.5 Z M 69.1227779475326 0.5 L 91.2455558950652 0.5 L 91.2455558950652 3.5 L 98.2455558950652 0 L 91.2455558950652 -3.5 L 91.2455558950652 -0.5 L 69.1227779475326 -0.5 Z"/><text text-anchor="middle" pointer-events="none" font-size="8px" fill="#000000" data-darkreader-inline-fill="" style="--darkreader-inline-fill:#e3e1de;" x="58.1227779475326" y="3" transform="rotate(180 58.1227779475326 0)" font-family="sans-serif">义子</text></g><g class="relationship" transform="translate(172.0544458556098 252.02252152772977) rotate(298.46950145472147)"><path class="outline" fill="#A5ABB6" stroke="none" data-darkreader-inline-fill="" data-darkreader-inline-stroke="" style="--darkreader-inline-fill:#b2aca2; --darkreader-inline-stroke:none;" d="M 25 0.5 L 35.84867477277117 0.5 L 35.84867477277117 -0.5 L 25 -0.5 Z M 35.84867477277117 0.5 L 46.69734954554234 0.5 L 46.69734954554234 3.5 L 53.69734954554234 0 L 46.69734954554234 -3.5 L 46.69734954554234 -0.5 L 35.84867477277117 -0.5 Z"/><text text-anchor="middle" pointer-events="none" font-size="8px" fill="#000000" data-darkreader-inline-fill="" style="--darkreader-inline-fill:#e3e1de;" x="35.84867477277117" y="3" font-family="sans-serif"/></g><g class="relationship" transform="translate(209.56875610465585 182.84196535743297) rotate(222.6162105356256)"><path class="outline" fill="#A5ABB6" stroke="none" data-darkreader-inline-fill="" data-darkreader-inline-stroke="" style="--darkreader-inline-fill:#b2aca2; --darkreader-inline-stroke:none;" d="M 25 0.5 L 38.5504932614281 0.5 L 38.5504932614281 -0.5 L 25 -0.5 Z M 60.5504932614281 0.5 L 74.1009865228562 0.5 L 74.1009865228562 3.5 L 81.1009865228562 0 L 74.1009865228562 -3.5 L 74.1009865228562 -0.5 L 60.5504932614281 -0.5 Z"/><text text-anchor="middle" pointer-events="none" font-size="8px" fill="#000000" data-darkreader-inline-fill="" style="--darkreader-inline-fill:#e3e1de;" x="49.5504932614281" y="3" transform="rotate(180 49.5504932614281 0)" font-family="sans-serif">主公</text></g><g class="relationship" transform="translate(209.56875610465585 182.84196535743297) rotate(329.4215783150964)"><path class="outline" fill="#A5ABB6" stroke="none" data-darkreader-inline-fill="" data-darkreader-inline-stroke="" style="--darkreader-inline-fill:#b2aca2; --darkreader-inline-stroke:none;" d="M 24.018736134675446,-6.953439040707552 L 24.277555179777966,-5.987513214418485 A 43.36612818586131 43.36612818586131 0 0 1 34.55513979663264,-7.454850200191387 L 34.53331642181007,-8.454612041987396 A 44.36612818586131 44.36612818586131 0 0 0 24.018736134675446,-6.953439040707552 Z M 34.53331642181007,-8.454612041987396 L 34.55513979663264,-7.454850200191387 A 43.36612818586131 43.36612818586131 0 0 1 44.88696405233033,-6.437387210298578 L 44.237694953728564,-3.508488161577224 L 51.829273349113784,-5.410575821681357 L 45.752656183799346,-10.34258594192705 L 45.10338708519758,-7.413686893205696 A 44.36612818586131 44.36612818586131 0 0 0 34.53331642181007,-8.454612041987396"/><text text-anchor="middle" pointer-events="none" font-size="8px" fill="#000000" data-darkreader-inline-fill="" style="--darkreader-inline-fill:#e3e1de;" x="34.54422810922135" y="-4.954731121089395" font-family="sans-serif"/></g><g class="relationship" transform="translate(219.90946342976562 386.95601005305707) rotate(250.47262594829579)"><path class="outline" fill="#A5ABB6" stroke="none" data-darkreader-inline-fill="" data-darkreader-inline-stroke="" style="--darkreader-inline-fill:#b2aca2; --darkreader-inline-stroke:none;" d="M 24.018736134675446,-6.953439040707552 L 24.277555179777966,-5.987513214418485 A 177.39462179548255 177.39462179548255 0 0 1 57.09000507095864,-11.547682888510423 L 57.016154710696014,-12.544952222386229 A 178.39462179548255 178.39462179548255 0 0 0 24.018736134675446,-6.953439040707552 Z M 79.06232336334955,-12.81135553601689 L 79.01259281948644,-11.81259286500486 A 177.39462179548255 177.39462179548255 0 0 1 111.94981880370867,-7.0469345547385025 L 111.24361097313567,-4.131240726498405 L 118.87080570803106,-5.885065254774882 L 112.89142924447265,-10.9345263257253 L 112.18522141389965,-8.018832497485201 A 178.39462179548255 178.39462179548255 0 0 0 79.06232336334955,-12.81135553601689"/><text text-anchor="middle" pointer-events="none" font-size="8px" fill="#000000" data-darkreader-inline-fill="" style="--darkreader-inline-fill:#e3e1de;" x="68.04116100501165" y="-9.519101689309423" transform="rotate(180 68.04116100501165 -12.519101689309423)" font-family="sans-serif">祖父</text></g><g class="relationship" transform="translate(275.2035549116401 144.05901049909346) rotate(293.08313377496575)"><path class="outline" fill="#A5ABB6" stroke="none" data-darkreader-inline-fill="" data-darkreader-inline-stroke="" style="--darkreader-inline-fill:#b2aca2; --darkreader-inline-stroke:none;" d="M 25 0.5 L 61.04870592327221 0.5 L 61.04870592327221 -0.5 L 25 -0.5 Z M 83.04870592327221 0.5 L 119.09741184654442 0.5 L 119.09741184654442 3.5 L 126.09741184654442 0 L 119.09741184654442 -3.5 L 119.09741184654442 -0.5 L 83.04870592327221 -0.5 Z"/><text text-anchor="middle" pointer-events="none" font-size="8px" fill="#000000" data-darkreader-inline-fill="" style="--darkreader-inline-fill:#e3e1de;" x="72.04870592327221" y="3" font-family="sans-serif">长女</text></g><g class="relationship" transform="translate(275.2035549116401 144.05901049909346) rotate(401.43391625327496)"><path class="outline" fill="#A5ABB6" stroke="none" data-darkreader-inline-fill="" data-darkreader-inline-stroke="" style="--darkreader-inline-fill:#b2aca2; --darkreader-inline-stroke:none;" d="M 24.018736134675446,6.953439040707552 L 24.277555179777966,5.987513214418485 A 173.61605089889997 173.61605089889997 0 0 0 56.13165465988827,11.409842079874863 L 56.05631000736169,12.40699963178713 A 174.61605089889997 174.61605089889997 0 0 1 24.018736134675446,6.953439040707552 Z M 78.10316105161053,12.676863626920039 L 78.05224668653388,11.678160604280748 A 173.61605089889997 173.61605089889997 0 0 0 110.02952615006699,7.037158328367819 L 109.32423138755796,4.121243497996854 L 116.95087654801742,5.877456354241909 L 110.9699191667457,10.925044768862438 L 110.26462440423667,8.009129938491474 A 174.61605089889997 174.61605089889997 0 0 1 78.10316105161053,12.676863626920039"/><text text-anchor="middle" pointer-events="none" font-size="8px" fill="#000000" data-darkreader-inline-fill="" style="--darkreader-inline-fill:#e3e1de;" x="67.08159164270617" y="15.3902943141795" font-family="sans-serif">对手</text></g><g class="relationship" transform="translate(275.2035549116401 144.05901049909346) rotate(332.7180419173826)"><path class="outline" fill="#A5ABB6" stroke="none" data-darkreader-inline-fill="" data-darkreader-inline-stroke="" style="--darkreader-inline-fill:#b2aca2; --darkreader-inline-stroke:none;" d="M 25 0.5 L 53.57720017875184 0.5 L 53.57720017875184 -0.5 L 25 -0.5 Z M 75.57720017875184 0.5 L 104.15440035750368 0.5 L 104.15440035750368 3.5 L 111.15440035750368 0 L 104.15440035750368 -3.5 L 104.15440035750368 -0.5 L 75.57720017875184 -0.5 Z"/><text text-anchor="middle" pointer-events="none" font-size="8px" fill="#000000" data-darkreader-inline-fill="" style="--darkreader-inline-fill:#e3e1de;" x="64.57720017875184" y="3" font-family="sans-serif">长子</text></g><g class="relationship" transform="translate(275.2035549116401 144.05901049909346) rotate(313.7079701065709)"><path class="outline" fill="#A5ABB6" stroke="none" data-darkreader-inline-fill="" data-darkreader-inline-stroke="" style="--darkreader-inline-fill:#b2aca2; --darkreader-inline-stroke:none;" d="M 25 0.5 L 70.04991932485997 0.5 L 70.04991932485997 -0.5 L 25 -0.5 Z M 92.04991932485997 0.5 L 137.09983864971994 0.5 L 137.09983864971994 3.5 L 144.09983864971994 0 L 137.09983864971994 -3.5 L 137.09983864971994 -0.5 L 92.04991932485997 -0.5 Z"/><text text-anchor="middle" pointer-events="none" font-size="8px" fill="#000000" data-darkreader-inline-fill="" style="--darkreader-inline-fill:#e3e1de;" x="81.04991932485997" y="3" font-family="sans-serif">次女</text></g><g class="relationship" transform="translate(275.2035549116401 144.05901049909346) rotate(509.4215783150964)"><path class="outline" fill="#A5ABB6" stroke="none" data-darkreader-inline-fill="" data-darkreader-inline-stroke="" style="--darkreader-inline-fill:#b2aca2; --darkreader-inline-stroke:none;" d="M 24.018736134675446,-6.953439040707552 L 24.277555179777966,-5.987513214418485 A 43.36612818586131 43.36612818586131 0 0 1 34.55513979663264,-7.454850200191387 L 34.53331642181007,-8.454612041987396 A 44.36612818586131 44.36612818586131 0 0 0 24.018736134675446,-6.953439040707552 Z M 34.53331642181007,-8.454612041987396 L 34.55513979663264,-7.454850200191387 A 43.36612818586131 43.36612818586131 0 0 1 44.88696405233033,-6.437387210298578 L 44.237694953728564,-3.508488161577224 L 51.829273349113784,-5.410575821681357 L 45.752656183799346,-10.34258594192705 L 45.10338708519758,-7.413686893205696 A 44.36612818586131 44.36612818586131 0 0 0 34.53331642181007,-8.454612041987396"/><text text-anchor="middle" pointer-events="none" font-size="8px" fill="#000000" data-darkreader-inline-fill="" style="--darkreader-inline-fill:#e3e1de;" x="34.54422810922135" y="-4.954731121089395" transform="rotate(180 34.54422810922135 -7.954731121089395)" font-family="sans-serif"/></g><g class="relationship" transform="translate(275.2035549116401 144.05901049909346) rotate(354.44064977547237)"><path class="outline" fill="#A5ABB6" stroke="none" data-darkreader-inline-fill="" data-darkreader-inline-stroke="" style="--darkreader-inline-fill:#b2aca2; --darkreader-inline-stroke:none;" d="M 24.018736134675446,6.953439040707552 L 24.277555179777966,5.987513214418485 A 208.55359632176916 208.55359632176916 0 0 0 65.01134267991736,12.672865192542332 L 64.94783931490166,13.670846816938138 A 209.55359632176916 209.55359632176916 0 0 1 24.018736134675446,6.953439040707552 Z M 86.9889666011083,13.911722695686734 L 86.94728862983062,12.912591599828858 A 208.55359632176916 208.55359632176916 0 0 0 127.81745143067575,7.119046242249838 L 127.1045087463156,4.204991896700092 L 134.73573535101852,5.941189036334473 L 128.76804167648925,11.004452036316167 L 128.05509899212913,8.09039769076642 A 209.55359632176916 209.55359632176916 0 0 1 86.9889666011083,13.911722695686734"/><text text-anchor="middle" pointer-events="none" font-size="8px" fill="#000000" data-darkreader-inline-fill="" style="--darkreader-inline-fill:#e3e1de;" x="75.97069753039409" y="16.58132200554462" font-family="sans-serif">孙子</text></g><g class="relationship" transform="translate(275.2035549116401 144.05901049909346) rotate(376.60139001349035)"><path class="outline" fill="#A5ABB6" stroke="none" data-darkreader-inline-fill="" data-darkreader-inline-stroke="" style="--darkreader-inline-fill:#b2aca2; --darkreader-inline-stroke:none;" d="M 25 0.5 L 58.57635705820371 0.5 L 58.57635705820371 -0.5 L 25 -0.5 Z M 80.57635705820371 0.5 L 114.15271411640742 0.5 L 114.15271411640742 3.5 L 121.15271411640742 0 L 114.15271411640742 -3.5 L 114.15271411640742 -0.5 L 80.57635705820371 -0.5 Z"/><text text-anchor="middle" pointer-events="none" font-size="8px" fill="#000000" data-darkreader-inline-fill="" style="--darkreader-inline-fill:#e3e1de;" x="69.57635705820371" y="3" font-family="sans-serif">次子</text></g><g class="relationship" transform="translate(292.2610257453668 308.5287785679367) rotate(205.1771022741866)"><path class="outline" fill="#A5ABB6" stroke="none" data-darkreader-inline-fill="" data-darkreader-inline-stroke="" style="--darkreader-inline-fill:#b2aca2; --darkreader-inline-stroke:none;" d="M 24.018736134675446,-6.953439040707552 L 24.277555179777966,-5.987513214418485 A 156.99446591274375 156.99446591274375 0 0 1 51.9229382374761,-10.798823901698398 L 51.84021064182036,-11.795396099242083 A 157.99446591274375 157.99446591274375 0 0 0 24.018736134675446,-6.953439040707552 Z M 73.89025821366138,-12.081589286891557 L 73.83342365791862,-11.083205676612664 A 156.99446591274375 156.99446591274375 0 0 1 101.59436736270324,-6.991027826594935 L 100.89338110406537,-4.074074233340344 L 108.51742345673694,-5.84155215531565 L 102.52901570755374,-10.880299284267723 L 101.82802944891587,-7.963345691013132 A 157.99446591274375 157.99446591274375 0 0 0 73.89025821366138,-12.081589286891557"/><text text-anchor="middle" pointer-events="none" font-size="8px" fill="#000000" data-darkreader-inline-fill="" style="--darkreader-inline-fill:#e3e1de;" x="62.866724276715416" y="-8.823705751304658" transform="rotate(180 62.866724276715416 -11.823705751304658)" font-family="sans-serif">对手</text></g><g class="relationship" transform="translate(131.48845115333145 111.00266330186244) rotate(223.21318971851315)"><path class="outline" fill="#A5ABB6" stroke="none" data-darkreader-inline-fill="" data-darkreader-inline-stroke="" style="--darkreader-inline-fill:#b2aca2; --darkreader-inline-stroke:none;" d="M 25 0.5 L 46.98046601076815 0.5 L 46.98046601076815 -0.5 L 25 -0.5 Z M 68.98046601076814 0.5 L 90.9609320215363 0.5 L 90.9609320215363 3.5 L 97.9609320215363 0 L 90.9609320215363 -3.5 L 90.9609320215363 -0.5 L 68.98046601076814 -0.5 Z"/><text text-anchor="middle" pointer-events="none" font-size="8px" fill="#000000" data-darkreader-inline-fill="" style="--darkreader-inline-fill:#e3e1de;" x="57.98046601076815" y="3" transform="rotate(180 57.98046601076815 0)" font-family="sans-serif">部下</text></g><g class="relationship" transform="translate(131.48845115333145 111.00266330186244) rotate(195.14878442243736)"><path class="outline" fill="#A5ABB6" stroke="none" data-darkreader-inline-fill="" data-darkreader-inline-stroke="" style="--darkreader-inline-fill:#b2aca2; --darkreader-inline-stroke:none;" d="M 24.018736134675446,6.953439040707552 L 24.277555179777966,5.987513214418485 A 158.10467586190288 158.10467586190288 0 0 0 52.20367015735834,10.839900007398313 L 52.12148165670583,11.836516809564756 A 159.10467586190288 159.10467586190288 0 0 1 24.018736134675446,6.953439040707552 Z M 74.17130580910869,12.121559407398195 L 74.11490740756643,11.123151063931715 A 158.10467586190288 158.10467586190288 0 0 0 102.1571249678737,6.9942783812114415 L 101.45583510999074,4.0773977639714225 L 109.08006138441424,5.844082149024566 L 103.09217811171763,10.883452537531467 L 102.39088825383467,7.966571920291448 A 159.10467586190288 159.10467586190288 0 0 1 74.17130580910869,12.121559407398195"/><text text-anchor="middle" pointer-events="none" font-size="8px" fill="#000000" data-darkreader-inline-fill="" style="--darkreader-inline-fill:#e3e1de;" x="63.1479125433205" y="14.8615486427407" transform="rotate(180 63.1479125433205 11.8615486427407)" font-family="sans-serif">孙子</text></g><g class="relationship" transform="translate(131.48845115333145 111.00266330186244) rotate(433.9515062044173)"><path class="outline" fill="#A5ABB6" stroke="none" data-darkreader-inline-fill="" data-darkreader-inline-stroke="" style="--darkreader-inline-fill:#b2aca2; --darkreader-inline-stroke:none;" d="M 24.018736134675446,-6.953439040707552 L 24.277555179777966,-5.987513214418485 A 184.42288854909424 184.42288854909424 0 0 1 58.87397600597036,-11.803171916428028 L 58.802749841005294,-12.800632107826345 A 185.42288854909424 185.42288854909424 0 0 0 24.018736134675446,-6.953439040707552 Z M 80.84769182016436,-13.060824611658262 L 80.80002790553,-12.061961181933412 A 184.42288854909424 184.42288854909424 0 0 1 115.52407429144066,-7.06447954511042 L 114.81622782707807,-4.149183096567086 L 122.4444070821022,-5.898720536354928 L 116.46786957725745,-10.951541476501532 L 115.76002311289486,-8.036245027958199 A 185.42288854909424 185.42288854909424 0 0 0 80.84769182016436,-13.060824611658262"/><text text-anchor="middle" pointer-events="none" font-size="8px" fill="#000000" data-darkreader-inline-fill="" style="--darkreader-inline-fill:#e3e1de;" x="69.82725134951174" y="-9.7586916128258" font-family="sans-serif">二弟</text></g><g class="relationship" transform="translate(131.48845115333145 111.00266330186244) rotate(234.498023063132)"><path class="outline" fill="#A5ABB6" stroke="none" data-darkreader-inline-fill="" data-darkreader-inline-stroke="" style="--darkreader-inline-fill:#b2aca2; --darkreader-inline-stroke:none;" d="M 24.018736134675446,6.953439040707552 L 24.277555179777966,5.987513214418485 A 256.4769641788015 256.4769641788015 0 0 0 77.24391467700157,14.375690885637937 L 77.1916107069149,15.374322096202263 A 257.4769641788015 257.4769641788015 0 0 1 24.018736134675446,6.953439040707552 Z M 99.22668612871006,15.58415643766375 L 99.19340933435019,14.584710263546754 A 256.4769641788015 256.4769641788015 0 0 0 152.30990586657697,7.206732276657766 L 151.58877411201982,4.294693644948124 L 159.22485129965898,6.009431287976077 L 153.27141487265314,11.089450452270622 L 152.550283118096,8.17741182056098 A 257.4769641788015 257.4769641788015 0 0 1 99.22668612871006,15.58415643766375"/><text text-anchor="middle" pointer-events="none" font-size="8px" fill="#000000" data-darkreader-inline-fill="" style="--darkreader-inline-fill:#e3e1de;" x="88.21166371970638" y="18.215102965150777" transform="rotate(180 88.21166371970638 15.215102965150777)" font-family="sans-serif">君臣</text></g><g class="relationship" transform="translate(131.48845115333145 111.00266330186244) rotate(213.5953220420472)"><path class="outline" fill="#A5ABB6" stroke="none" data-darkreader-inline-fill="" data-darkreader-inline-stroke="" style="--darkreader-inline-fill:#b2aca2; --darkreader-inline-stroke:none;" d="M 25 0.5 L 78.10619339930811 0.5 L 78.10619339930811 -0.5 L 25 -0.5 Z M 100.10619339930811 0.5 L 153.21238679861622 0.5 L 153.21238679861622 3.5 L 160.21238679861622 0 L 153.21238679861622 -3.5 L 153.21238679861622 -0.5 L 100.10619339930811 -0.5 Z"/><text text-anchor="middle" pointer-events="none" font-size="8px" fill="#000000" data-darkreader-inline-fill="" style="--darkreader-inline-fill:#e3e1de;" x="89.10619339930811" y="3" transform="rotate(180 89.10619339930811 0)" font-family="sans-serif">儿子</text></g><g class="relationship" transform="translate(131.48845115333145 111.00266330186244) rotate(254.80274801245383)"><path class="outline" fill="#A5ABB6" stroke="none" data-darkreader-inline-fill="" data-darkreader-inline-stroke="" style="--darkreader-inline-fill:#b2aca2; --darkreader-inline-stroke:none;" d="M 25 0.5 L 80.94167453581804 0.5 L 80.94167453581804 -0.5 L 25 -0.5 Z M 102.94167453581804 0.5 L 158.88334907163608 0.5 L 158.88334907163608 3.5 L 165.88334907163608 0 L 158.88334907163608 -3.5 L 158.88334907163608 -0.5 L 102.94167453581804 -0.5 Z"/><text text-anchor="middle" pointer-events="none" font-size="8px" fill="#000000" data-darkreader-inline-fill="" style="--darkreader-inline-fill:#e3e1de;" x="91.94167453581804" y="3" transform="rotate(180 91.94167453581804 0)" font-family="sans-serif">养子</text></g><g class="relationship" transform="translate(131.48845115333145 111.00266330186244) rotate(372.9534738408784)"><path class="outline" fill="#A5ABB6" stroke="none" data-darkreader-inline-fill="" data-darkreader-inline-stroke="" style="--darkreader-inline-fill:#b2aca2; --darkreader-inline-stroke:none;" d="M 25 0.5 L 59.23390186726405 0.5 L 59.23390186726405 -0.5 L 25 -0.5 Z M 81.23390186726405 0.5 L 115.4678037345281 0.5 L 115.4678037345281 3.5 L 122.4678037345281 0 L 115.4678037345281 -3.5 L 115.4678037345281 -0.5 L 81.23390186726405 -0.5 Z"/><text text-anchor="middle" pointer-events="none" font-size="8px" fill="#000000" data-darkreader-inline-fill="" style="--darkreader-inline-fill:#e3e1de;" x="70.23390186726405" y="3" font-family="sans-serif">三弟</text></g><g class="relationship" transform="translate(131.48845115333145 111.00266330186244) rotate(322.7489272261592)"><path class="outline" fill="#A5ABB6" stroke="none" data-darkreader-inline-fill="" data-darkreader-inline-stroke="" style="--darkreader-inline-fill:#b2aca2; --darkreader-inline-stroke:none;" d="M 24.018736134675446,6.953439040707552 L 24.277555179777966,5.987513214418485 A 147.76746517999908 147.76746517999908 0 0 0 49.59211102335275,10.455735782870534 L 49.50460543898219,11.451899811885824 A 148.76746517999908 148.76746517999908 0 0 1 24.018736134675446,6.953439040707552 Z M 71.55656308063556,11.748018021219707 L 71.49583761452091,10.749863515261268 A 147.76746517999908 147.76746517999908 0 0 0 96.92124461374407,6.962987572938166 L 96.22287731434653,4.045405849124387 L 103.84532985254248,5.819727494979531 L 97.85240101294079,10.853096538023205 L 97.15403371354326,7.9355148142094265 A 148.76746517999908 148.76746517999908 0 0 1 71.55656308063556,11.748018021219707"/><text text-anchor="middle" pointer-events="none" font-size="8px" fill="#000000" data-darkreader-inline-fill="" style="--darkreader-inline-fill:#e3e1de;" x="60.53180296565351" y="14.509201749933112" font-family="sans-serif">妻子</text></g><g class="relationship" transform="translate(131.48845115333145 111.00266330186244) rotate(300.1300141719258)"><path class="outline" fill="#A5ABB6" stroke="none" data-darkreader-inline-fill="" data-darkreader-inline-stroke="" style="--darkreader-inline-fill:#b2aca2; --darkreader-inline-stroke:none;" d="M 24.018736134675446,6.953439040707552 L 24.277555179777966,5.987513214418485 A 228.44483427324835 228.44483427324835 0 0 0 70.08252263739557,13.382872049432166 L 70.02421137616716,14.381170500204234 A 229.44483427324835 229.44483427324835 0 0 1 24.018736134675446,6.953439040707552 Z M 92.06260740946013,14.608126577375685 L 92.02486771315402,13.608838973468437 A 228.44483427324835 228.44483427324835 0 0 0 137.97242247266587,7.158367074941727 L 137.25580753670616,4.245213623171724 L 144.8892163494558,5.971791132997445 L 138.92790905394546,11.042571677301732 L 138.21129411798574,8.129418225531728 A 229.44483427324835 229.44483427324835 0 0 1 92.06260740946013,14.608126577375685"/><text text-anchor="middle" pointer-events="none" font-size="8px" fill="#000000" data-darkreader-inline-fill="" style="--darkreader-inline-fill:#e3e1de;" x="81.04583158951621" y="17.259442983304808" font-family="sans-serif">下属</text></g><g class="relationship" transform="translate(73.94740056980814 215.84469128216645) rotate(298.75955323799195)"><path class="outline" fill="#A5ABB6" stroke="none" data-darkreader-inline-fill="" data-darkreader-inline-stroke="" style="--darkreader-inline-fill:#b2aca2; --darkreader-inline-stroke:none;" d="M 25 0.5 L 45.297205898934855 0.5 L 45.297205898934855 -0.5 L 25 -0.5 Z M 67.29720589893486 0.5 L 87.59441179786971 0.5 L 87.59441179786971 3.5 L 94.59441179786971 0 L 87.59441179786971 -3.5 L 87.59441179786971 -0.5 L 67.29720589893486 -0.5 Z"/><text text-anchor="middle" pointer-events="none" font-size="8px" fill="#000000" data-darkreader-inline-fill="" style="--darkreader-inline-fill:#e3e1de;" x="56.297205898934855" y="3" font-family="sans-serif">主公</text></g><g class="relationship" transform="translate(50.08896301436399 351.72265932996663) rotate(320.7358724831061)"><path class="outline" fill="#A5ABB6" stroke="none" data-darkreader-inline-fill="" data-darkreader-inline-stroke="" style="--darkreader-inline-fill:#b2aca2; --darkreader-inline-stroke:none;" d="M 24.018736134675446,-6.953439040707552 L 24.277555179777966,-5.987513214418485 A 205.63020095005544 205.63020095005544 0 0 1 64.26689107824109,-12.568041810359148 L 64.20254412777108,-13.565969397895032 A 206.63020095005544 206.63020095005544 0 0 0 24.018736134675446,-6.953439040707552 Z M 86.24410270048509,-13.809033914776933 L 86.2017781263117,-12.809930001051725 A 205.63020095005544 205.63020095005544 0 0 1 126.32650588735136,-7.1128637117625555 L 125.61414060888772,-4.198668160664549 L 133.24502305299066,-5.936377320530382 L 127.27632625863622,-10.99845777989323 L 126.56396098017258,-8.084262228795223 A 206.63020095005544 206.63020095005544 0 0 0 86.24410270048509,-13.809033914776933"/><text text-anchor="middle" pointer-events="none" font-size="8px" fill="#000000" data-darkreader-inline-fill="" style="--darkreader-inline-fill:#e3e1de;" x="75.22559334328098" y="-10.481660108498488" font-family="sans-serif">好友</text></g><g class="relationship" transform="translate(216.40341852012742 -35.3066428079349) rotate(480.1300141719258)"><path class="outline" fill="#A5ABB6" stroke="none" data-darkreader-inline-fill="" data-darkreader-inline-stroke="" style="--darkreader-inline-fill:#b2aca2; --darkreader-inline-stroke:none;" d="M 24.018736134675446,6.953439040707552 L 24.277555179777966,5.987513214418485 A 228.44483427324835 228.44483427324835 0 0 0 70.08252263739557,13.382872049432166 L 70.02421137616716,14.381170500204234 A 229.44483427324835 229.44483427324835 0 0 1 24.018736134675446,6.953439040707552 Z M 92.06260740946013,14.608126577375685 L 92.02486771315402,13.608838973468437 A 228.44483427324835 228.44483427324835 0 0 0 137.97242247266587,7.158367074941727 L 137.25580753670616,4.245213623171724 L 144.8892163494558,5.971791132997445 L 138.92790905394546,11.042571677301732 L 138.21129411798574,8.129418225531728 A 229.44483427324835 229.44483427324835 0 0 1 92.06260740946013,14.608126577375685"/><text text-anchor="middle" pointer-events="none" font-size="8px" fill="#000000" data-darkreader-inline-fill="" style="--darkreader-inline-fill:#e3e1de;" x="81.04583158951621" y="17.259442983304808" transform="rotate(180 81.04583158951621 14.259442983304808)" font-family="sans-serif">主公</text></g><g class="relationship" transform="translate(233.50142999736576 33.42717710000867) rotate(502.7489272261592)"><path class="outline" fill="#A5ABB6" stroke="none" data-darkreader-inline-fill="" data-darkreader-inline-stroke="" style="--darkreader-inline-fill:#b2aca2; --darkreader-inline-stroke:none;" d="M 24.018736134675446,6.953439040707552 L 24.277555179777966,5.987513214418485 A 147.76746517999908 147.76746517999908 0 0 0 49.59211102335275,10.455735782870534 L 49.50460543898219,11.451899811885824 A 148.76746517999908 148.76746517999908 0 0 1 24.018736134675446,6.953439040707552 Z M 71.55656308063556,11.748018021219707 L 71.49583761452091,10.749863515261268 A 147.76746517999908 147.76746517999908 0 0 0 96.92124461374407,6.962987572938166 L 96.22287731434653,4.045405849124387 L 103.84532985254248,5.819727494979531 L 97.85240101294079,10.853096538023205 L 97.15403371354326,7.9355148142094265 A 148.76746517999908 148.76746517999908 0 0 1 71.55656308063556,11.748018021219707"/><text text-anchor="middle" pointer-events="none" font-size="8px" fill="#000000" data-darkreader-inline-fill="" style="--darkreader-inline-fill:#e3e1de;" x="60.53180296565351" y="14.509201749933112" transform="rotate(180 60.53180296565351 11.509201749933112)" font-family="sans-serif">丈夫</text></g><g class="relationship" transform="translate(24.92904310085355 -38.37721440721741) rotate(414.498023063132)"><path class="outline" fill="#A5ABB6" stroke="none" data-darkreader-inline-fill="" data-darkreader-inline-stroke="" style="--darkreader-inline-fill:#b2aca2; --darkreader-inline-stroke:none;" d="M 24.018736134675446,6.953439040707552 L 24.277555179777966,5.987513214418485 A 256.4769641788015 256.4769641788015 0 0 0 77.24391467700157,14.375690885637937 L 77.1916107069149,15.374322096202263 A 257.4769641788015 257.4769641788015 0 0 1 24.018736134675446,6.953439040707552 Z M 99.22668612871006,15.58415643766375 L 99.19340933435019,14.584710263546754 A 256.4769641788015 256.4769641788015 0 0 0 152.30990586657697,7.206732276657766 L 151.58877411201982,4.294693644948124 L 159.22485129965898,6.009431287976077 L 153.27141487265314,11.089450452270622 L 152.550283118096,8.17741182056098 A 257.4769641788015 257.4769641788015 0 0 1 99.22668612871006,15.58415643766375"/><text text-anchor="middle" pointer-events="none" font-size="8px" fill="#000000" data-darkreader-inline-fill="" style="--darkreader-inline-fill:#e3e1de;" x="88.21166371970638" y="18.215102965150777" font-family="sans-serif">君臣</text></g><g class="relationship" transform="translate(2.7362001195621564 76.145005670775) rotate(375.14878442243736)"><path class="outline" fill="#A5ABB6" stroke="none" data-darkreader-inline-fill="" data-darkreader-inline-stroke="" style="--darkreader-inline-fill:#b2aca2; --darkreader-inline-stroke:none;" d="M 24.018736134675446,6.953439040707552 L 24.277555179777966,5.987513214418485 A 158.10467586190288 158.10467586190288 0 0 0 52.20367015735834,10.839900007398313 L 52.12148165670583,11.836516809564756 A 159.10467586190288 159.10467586190288 0 0 1 24.018736134675446,6.953439040707552 Z M 74.17130580910869,12.121559407398195 L 74.11490740756643,11.123151063931715 A 158.10467586190288 158.10467586190288 0 0 0 102.1571249678737,6.9942783812114415 L 101.45583510999074,4.0773977639714225 L 109.08006138441424,5.844082149024566 L 103.09217811171763,10.883452537531467 L 102.39088825383467,7.966571920291448 A 159.10467586190288 159.10467586190288 0 0 1 74.17130580910869,12.121559407398195"/><text text-anchor="middle" pointer-events="none" font-size="8px" fill="#000000" data-darkreader-inline-fill="" style="--darkreader-inline-fill:#e3e1de;" x="63.1479125433205" y="14.8615486427407" font-family="sans-serif">祖父</text></g><g class="relationship" transform="translate(-48.23414475224133 137.3351706721579) rotate(351.6644746390209)"><path class="outline" fill="#A5ABB6" stroke="none" data-darkreader-inline-fill="" data-darkreader-inline-stroke="" style="--darkreader-inline-fill:#b2aca2; --darkreader-inline-stroke:none;" d="M 25 0.5 L 76.32071958458111 0.5 L 76.32071958458111 -0.5 L 25 -0.5 Z M 98.32071958458111 0.5 L 149.64143916916223 0.5 L 149.64143916916223 3.5 L 156.64143916916223 0 L 149.64143916916223 -3.5 L 149.64143916916223 -0.5 L 98.32071958458111 -0.5 Z"/><text text-anchor="middle" pointer-events="none" font-size="8px" fill="#000000" data-darkreader-inline-fill="" style="--darkreader-inline-fill:#e3e1de;" x="87.32071958458111" y="3" font-family="sans-serif">主公</text></g><g class="relationship" transform="translate(433.4751093721738 128.65370988312154) rotate(534.4406497754724)"><path class="outline" fill="#A5ABB6" stroke="none" data-darkreader-inline-fill="" data-darkreader-inline-stroke="" style="--darkreader-inline-fill:#b2aca2; --darkreader-inline-stroke:none;" d="M 24.018736134675446,6.953439040707552 L 24.277555179777966,5.987513214418485 A 208.55359632176916 208.55359632176916 0 0 0 65.01134267991736,12.672865192542332 L 64.94783931490166,13.670846816938138 A 209.55359632176916 209.55359632176916 0 0 1 24.018736134675446,6.953439040707552 Z M 86.9889666011083,13.911722695686734 L 86.94728862983062,12.912591599828858 A 208.55359632176916 208.55359632176916 0 0 0 127.81745143067575,7.119046242249838 L 127.1045087463156,4.204991896700092 L 134.73573535101852,5.941189036334473 L 128.76804167648925,11.004452036316167 L 128.05509899212913,8.09039769076642 A 209.55359632176916 209.55359632176916 0 0 1 86.9889666011083,13.911722695686734"/><text text-anchor="middle" pointer-events="none" font-size="8px" fill="#000000" data-darkreader-inline-fill="" style="--darkreader-inline-fill:#e3e1de;" x="75.97069753039409" y="16.58132200554462" transform="rotate(180 75.97069753039409 13.58132200554462)" font-family="sans-serif">祖父</text></g><g class="relationship" transform="translate(381.10155573622677 237.53212450893525) rotate(221.43391625327496)"><path class="outline" fill="#A5ABB6" stroke="none" data-darkreader-inline-fill="" data-darkreader-inline-stroke="" style="--darkreader-inline-fill:#b2aca2; --darkreader-inline-stroke:none;" d="M 24.018736134675446,6.953439040707552 L 24.277555179777966,5.987513214418485 A 173.61605089889997 173.61605089889997 0 0 0 56.13165465988827,11.409842079874863 L 56.05631000736169,12.40699963178713 A 174.61605089889997 174.61605089889997 0 0 1 24.018736134675446,6.953439040707552 Z M 78.10316105161053,12.676863626920039 L 78.05224668653388,11.678160604280748 A 173.61605089889997 173.61605089889997 0 0 0 110.02952615006699,7.037158328367819 L 109.32423138755796,4.121243497996854 L 116.95087654801742,5.877456354241909 L 110.9699191667457,10.925044768862438 L 110.26462440423667,8.009129938491474 A 174.61605089889997 174.61605089889997 0 0 1 78.10316105161053,12.676863626920039"/><text text-anchor="middle" pointer-events="none" font-size="8px" fill="#000000" data-darkreader-inline-fill="" style="--darkreader-inline-fill:#e3e1de;" x="67.08159164270617" y="15.3902943141795" transform="rotate(180 67.08159164270617 12.3902943141795)" font-family="sans-serif">对手</text></g><g class="relationship" transform="translate(-56.705821780750156 68.27009990963222) rotate(372.7930150581276)"><path class="outline" fill="#A5ABB6" stroke="none" data-darkreader-inline-fill="" data-darkreader-inline-stroke="" style="--darkreader-inline-fill:#b2aca2; --darkreader-inline-stroke:none;" d="M 25 0.5 L 77.99243019436625 0.5 L 77.99243019436625 -0.5 L 25 -0.5 Z M 107.99243019436625 0.5 L 160.9848603887325 0.5 L 160.9848603887325 3.5 L 167.9848603887325 0 L 160.9848603887325 -3.5 L 160.9848603887325 -0.5 L 107.99243019436625 -0.5 Z"/><text text-anchor="middle" pointer-events="none" font-size="8px" fill="#000000" data-darkreader-inline-fill="" style="--darkreader-inline-fill:#e3e1de;" x="92.99243019436625" y="3" font-family="sans-serif">前上司</text></g><g class="relationship" transform="translate(167.44073230050418 416.05939970234783) rotate(271.6110806580838)"><path class="outline" fill="#A5ABB6" stroke="none" data-darkreader-inline-fill="" data-darkreader-inline-stroke="" style="--darkreader-inline-fill:#b2aca2; --darkreader-inline-stroke:none;" d="M 25 0.5 L 67.55087408742678 0.5 L 67.55087408742678 -0.5 L 25 -0.5 Z M 89.55087408742678 0.5 L 132.10174817485355 0.5 L 132.10174817485355 3.5 L 139.10174817485355 0 L 132.10174817485355 -3.5 L 132.10174817485355 -0.5 L 89.55087408742678 -0.5 Z"/><text text-anchor="middle" pointer-events="none" font-size="8px" fill="#000000" data-darkreader-inline-fill="" style="--darkreader-inline-fill:#e3e1de;" x="78.55087408742678" y="3" font-family="sans-serif">同乡</text></g><g class="relationship" transform="translate(-10.621033401009445 197.55790726298594) rotate(328.6554772961504)"><path class="outline" fill="#A5ABB6" stroke="none" data-darkreader-inline-fill="" data-darkreader-inline-stroke="" style="--darkreader-inline-fill:#b2aca2; --darkreader-inline-stroke:none;" d="M 25 0.5 L 68.6969288157172 0.5 L 68.6969288157172 -0.5 L 25 -0.5 Z M 90.6969288157172 0.5 L 134.3938576314344 0.5 L 134.3938576314344 3.5 L 141.3938576314344 0 L 134.3938576314344 -3.5 L 134.3938576314344 -0.5 L 90.6969288157172 -0.5 Z"/><text text-anchor="middle" pointer-events="none" font-size="8px" fill="#000000" data-darkreader-inline-fill="" style="--darkreader-inline-fill:#e3e1de;" x="79.6969288157172" y="3" font-family="sans-serif">丈夫</text></g><g class="relationship" transform="translate(12.966105555060823 142.39517060130618) rotate(345.164961617043)"><path class="outline" fill="#A5ABB6" stroke="none" data-darkreader-inline-fill="" data-darkreader-inline-stroke="" style="--darkreader-inline-fill:#b2aca2; --darkreader-inline-stroke:none;" d="M 25 0.5 L 34.80464077184845 0.5 L 34.80464077184845 -0.5 L 25 -0.5 Z M 80.80464077184845 0.5 L 90.6092815436969 0.5 L 90.6092815436969 3.5 L 97.6092815436969 0 L 90.6092815436969 -3.5 L 90.6092815436969 -0.5 L 80.80464077184845 -0.5 Z"/><text text-anchor="middle" pointer-events="none" font-size="8px" fill="#000000" data-darkreader-inline-fill="" style="--darkreader-inline-fill:#e3e1de;" x="57.80464077184845" y="3" font-family="sans-serif">小姑的丈夫</text></g><g class="relationship" transform="translate(93.83822483203542 -14.528787366163602) rotate(433.3046119622459)"><path class="outline" fill="#A5ABB6" stroke="none" data-darkreader-inline-fill="" data-darkreader-inline-stroke="" style="--darkreader-inline-fill:#b2aca2; --darkreader-inline-stroke:none;" d="M 25 0.5 L 51.02801814656053 0.5 L 51.02801814656053 -0.5 L 25 -0.5 Z M 73.02801814656053 0.5 L 99.05603629312105 0.5 L 99.05603629312105 3.5 L 106.05603629312105 0 L 99.05603629312105 -3.5 L 99.05603629312105 -0.5 L 73.02801814656053 -0.5 Z"/><text text-anchor="middle" pointer-events="none" font-size="8px" fill="#000000" data-darkreader-inline-fill="" style="--darkreader-inline-fill:#e3e1de;" x="62.02801814656053" y="3" font-family="sans-serif">丈夫</text></g><g class="relationship" transform="translate(163.30979127703 -7.371599869967025) rotate(465.04652799170765)"><path class="outline" fill="#A5ABB6" stroke="none" data-darkreader-inline-fill="" data-darkreader-inline-stroke="" style="--darkreader-inline-fill:#b2aca2; --darkreader-inline-stroke:none;" d="M 25 0.5 L 46.78838362353353 0.5 L 46.78838362353353 -0.5 L 25 -0.5 Z M 68.78838362353352 0.5 L 90.57676724706705 0.5 L 90.57676724706705 3.5 L 97.57676724706705 0 L 90.57676724706705 -3.5 L 90.57676724706705 -0.5 L 68.78838362353352 -0.5 Z"/><text text-anchor="middle" pointer-events="none" font-size="8px" fill="#000000" data-darkreader-inline-fill="" style="--darkreader-inline-fill:#e3e1de;" x="57.78838362353353" y="3" transform="rotate(180 57.78838362353353 0)" font-family="sans-serif">父亲</text></g><g class="relationship" transform="translate(150.01315448634986 -67.83521416445552) rotate(455.91382261028417)"><path class="outline" fill="#A5ABB6" stroke="none" data-darkreader-inline-fill="" data-darkreader-inline-stroke="" style="--darkreader-inline-fill:#b2aca2; --darkreader-inline-stroke:none;" d="M 25 0.5 L 75.39737350200241 0.5 L 75.39737350200241 -0.5 L 25 -0.5 Z M 97.39737350200241 0.5 L 147.79474700400482 0.5 L 147.79474700400482 3.5 L 154.79474700400482 0 L 147.79474700400482 -3.5 L 147.79474700400482 -0.5 L 97.39737350200241 -0.5 Z"/><text text-anchor="middle" pointer-events="none" font-size="8px" fill="#000000" data-darkreader-inline-fill="" style="--darkreader-inline-fill:#e3e1de;" x="86.39737350200241" y="3" transform="rotate(180 86.39737350200241 0)" font-family="sans-serif">对手</text></g></g><g class="layer nodes"><g class="node" transform="translate(21.200900190803072,299.202926317455)"><circle class="outline" cx="0" cy="0" r="25" fill="#8DCC93" stroke="#5db665" stroke-width="2px" data-darkreader-inline-fill="" data-darkreader-inline-stroke="" style="--darkreader-inline-fill:#326944; --darkreader-inline-stroke:#6bb973;"/><text text-anchor="middle" pointer-events="none" font-family="sans-serif" dy="1.5625" font-size="25" fill="#2A2C34" data-darkreader-inline-fill="" style="--darkreader-inline-fill:#c6c2bc;"/><text text-anchor="middle" pointer-events="none" x="0" y="5" font-size="10px" fill="#2A2C34" data-darkreader-inline-fill="" style="--darkreader-inline-fill:#c6c2bc;" font-family="sans-serif"> 关彝</text></g><g class="node" transform="translate(172.0544458556098,252.02252152772977)"><circle class="outline" cx="0" cy="0" r="25" fill="#8DCC93" stroke="#5db665" stroke-width="2px" data-darkreader-inline-fill="" data-darkreader-inline-stroke="" style="--darkreader-inline-fill:#326944; --darkreader-inline-stroke:#6bb973;"/><text text-anchor="middle" pointer-events="none" font-family="sans-serif" dy="1.5625" font-size="25" fill="#2A2C34" data-darkreader-inline-fill="" style="--darkreader-inline-fill:#c6c2bc;"/><text text-anchor="middle" pointer-events="none" x="0" y="5" font-size="10px" fill="#2A2C34" data-darkreader-inline-fill="" style="--darkreader-inline-fill:#c6c2bc;" font-family="sans-serif"> 关羽</text></g><g class="node" transform="translate(209.56875610465585,182.84196535743297)"><circle class="outline" cx="0" cy="0" r="25" fill="#8DCC93" stroke="#5db665" stroke-width="2px" data-darkreader-inline-fill="" data-darkreader-inline-stroke="" style="--darkreader-inline-fill:#326944; --darkreader-inline-stroke:#6bb973;"/><text text-anchor="middle" pointer-events="none" font-family="sans-serif" dy="1.5625" font-size="25" fill="#2A2C34" data-darkreader-inline-fill="" style="--darkreader-inline-fill:#c6c2bc;"/><text text-anchor="middle" pointer-events="none" x="0" y="5" font-size="10px" fill="#2A2C34" data-darkreader-inline-fill="" style="--darkreader-inline-fill:#c6c2bc;" font-family="sans-serif"> 赵云</text></g><g class="node" transform="translate(131.15196727137214,368.2828083566793)"><circle class="outline" cx="0" cy="0" r="25" fill="#8DCC93" stroke="#5db665" stroke-width="2px" data-darkreader-inline-fill="" data-darkreader-inline-stroke="" style="--darkreader-inline-fill:#326944; --darkreader-inline-stroke:#6bb973;"/><text text-anchor="middle" pointer-events="none" font-family="sans-serif" dy="1.5625" font-size="25" fill="#2A2C34" data-darkreader-inline-fill="" style="--darkreader-inline-fill:#c6c2bc;"/><text text-anchor="middle" pointer-events="none" x="0" y="5" font-size="10px" fill="#2A2C34" data-darkreader-inline-fill="" style="--darkreader-inline-fill:#c6c2bc;" font-family="sans-serif"> 关平</text></g><g class="node" transform="translate(81.94653261609834,402.5582560032988)"><circle class="outline" cx="0" cy="0" r="25" fill="#8DCC93" stroke="#5db665" stroke-width="2px" data-darkreader-inline-fill="" data-darkreader-inline-stroke="" style="--darkreader-inline-fill:#326944; --darkreader-inline-stroke:#6bb973;"/><text text-anchor="middle" pointer-events="none" font-family="sans-serif" dy="1.5625" font-size="25" fill="#2A2C34" data-darkreader-inline-fill="" style="--darkreader-inline-fill:#c6c2bc;"/><text text-anchor="middle" pointer-events="none" x="0" y="5" font-size="10px" fill="#2A2C34" data-darkreader-inline-fill="" style="--darkreader-inline-fill:#c6c2bc;" font-family="sans-serif"> 关凤</text></g><g class="node" transform="translate(219.90946342976562,386.95601005305707)"><circle class="outline" cx="0" cy="0" r="25" fill="#8DCC93" stroke="#5db665" stroke-width="2px" data-darkreader-inline-fill="" data-darkreader-inline-stroke="" style="--darkreader-inline-fill:#326944; --darkreader-inline-stroke:#6bb973;"/><text text-anchor="middle" pointer-events="none" font-family="sans-serif" dy="1.5625" font-size="25" fill="#2A2C34" data-darkreader-inline-fill="" style="--darkreader-inline-fill:#c6c2bc;"/><text text-anchor="middle" pointer-events="none" x="0" y="5" font-size="10px" fill="#2A2C34" data-darkreader-inline-fill="" style="--darkreader-inline-fill:#c6c2bc;" font-family="sans-serif"> 关统</text></g><g class="node" transform="translate(276.2412632683642,366.3540302324325)"><circle class="outline" cx="0" cy="0" r="25" fill="#8DCC93" stroke="#5db665" stroke-width="2px" data-darkreader-inline-fill="" data-darkreader-inline-stroke="" style="--darkreader-inline-fill:#326944; --darkreader-inline-stroke:#6bb973;"/><text text-anchor="middle" pointer-events="none" font-family="sans-serif" dy="1.5625" font-size="25" fill="#2A2C34" data-darkreader-inline-fill="" style="--darkreader-inline-fill:#c6c2bc;"/><text text-anchor="middle" pointer-events="none" x="0" y="5" font-size="10px" fill="#2A2C34" data-darkreader-inline-fill="" style="--darkreader-inline-fill:#c6c2bc;" font-family="sans-serif"> 关兴</text></g><g class="node" transform="translate(275.2035549116401,144.05901049909346)"><circle class="outline" cx="0" cy="0" r="25" fill="#8DCC93" stroke="#5db665" stroke-width="2px" data-darkreader-inline-fill="" data-darkreader-inline-stroke="" style="--darkreader-inline-fill:#326944; --darkreader-inline-stroke:#6bb973;"/><text text-anchor="middle" pointer-events="none" font-family="sans-serif" dy="1.5625" font-size="25" fill="#2A2C34" data-darkreader-inline-fill="" style="--darkreader-inline-fill:#c6c2bc;"/><text text-anchor="middle" pointer-events="none" x="0" y="5" font-size="10px" fill="#2A2C34" data-darkreader-inline-fill="" style="--darkreader-inline-fill:#c6c2bc;" font-family="sans-serif"> 张飞</text></g><g class="node" transform="translate(292.2610257453668,308.5287785679367)"><circle class="outline" cx="0" cy="0" r="25" fill="#8DCC93" stroke="#5db665" stroke-width="2px" data-darkreader-inline-fill="" data-darkreader-inline-stroke="" style="--darkreader-inline-fill:#326944; --darkreader-inline-stroke:#6bb973;"/><text text-anchor="middle" pointer-events="none" font-family="sans-serif" dy="1.5625" font-size="25" fill="#2A2C34" data-darkreader-inline-fill="" style="--darkreader-inline-fill:#c6c2bc;"/><text text-anchor="middle" pointer-events="none" x="0" y="5" font-size="10px" fill="#2A2C34" data-darkreader-inline-fill="" style="--darkreader-inline-fill:#c6c2bc;" font-family="sans-serif"> 程昱</text></g><g class="node" transform="translate(131.48845115333145,111.00266330186244)"><circle class="outline" cx="0" cy="0" r="25" fill="#8DCC93" stroke="#5db665" stroke-width="2px" data-darkreader-inline-fill="" data-darkreader-inline-stroke="" style="--darkreader-inline-fill:#326944; --darkreader-inline-stroke:#6bb973;"/><text text-anchor="middle" pointer-events="none" font-family="sans-serif" dy="1.5625" font-size="25" fill="#2A2C34" data-darkreader-inline-fill="" style="--darkreader-inline-fill:#c6c2bc;"/><text text-anchor="middle" pointer-events="none" x="0" y="5" font-size="10px" fill="#2A2C34" data-darkreader-inline-fill="" style="--darkreader-inline-fill:#c6c2bc;" font-family="sans-serif"> 刘备</text></g><g class="node" transform="translate(73.94740056980814,215.84469128216645)"><circle class="outline" cx="0" cy="0" r="25" fill="#8DCC93" stroke="#5db665" stroke-width="2px" data-darkreader-inline-fill="" data-darkreader-inline-stroke="" style="--darkreader-inline-fill:#326944; --darkreader-inline-stroke:#6bb973;"/><text text-anchor="middle" pointer-events="none" font-family="sans-serif" dy="1.5625" font-size="25" fill="#2A2C34" data-darkreader-inline-fill="" style="--darkreader-inline-fill:#c6c2bc;"/><text text-anchor="middle" pointer-events="none" x="0" y="5" font-size="10px" fill="#2A2C34" data-darkreader-inline-fill="" style="--darkreader-inline-fill:#c6c2bc;" font-family="sans-serif"> 黄忠</text></g><g class="node" transform="translate(50.08896301436399,351.72265932996663)"><circle class="outline" cx="0" cy="0" r="25" fill="#8DCC93" stroke="#5db665" stroke-width="2px" data-darkreader-inline-fill="" data-darkreader-inline-stroke="" style="--darkreader-inline-fill:#326944; --darkreader-inline-stroke:#6bb973;"/><text text-anchor="middle" pointer-events="none" font-family="sans-serif" dy="1.5625" font-size="25" fill="#2A2C34" data-darkreader-inline-fill="" style="--darkreader-inline-fill:#c6c2bc;"/><text text-anchor="middle" pointer-events="none" x="0" y="5" font-size="10px" fill="#2A2C34" data-darkreader-inline-fill="" style="--darkreader-inline-fill:#c6c2bc;" font-family="sans-serif"> 张辽</text></g><g class="node" transform="translate(216.40341852012742,-35.3066428079349)"><circle class="outline" cx="0" cy="0" r="25" fill="#8DCC93" stroke="#5db665" stroke-width="2px" data-darkreader-inline-fill="" data-darkreader-inline-stroke="" style="--darkreader-inline-fill:#326944; --darkreader-inline-stroke:#6bb973;"/><text text-anchor="middle" pointer-events="none" font-family="sans-serif" dy="1.5625" font-size="25" fill="#2A2C34" data-darkreader-inline-fill="" style="--darkreader-inline-fill:#c6c2bc;"/><text text-anchor="middle" pointer-events="none" x="0" y="5" font-size="10px" fill="#2A2C34" data-darkreader-inline-fill="" style="--darkreader-inline-fill:#c6c2bc;" font-family="sans-serif"> 魏延</text></g><g class="node" transform="translate(233.50142999736576,33.42717710000867)"><circle class="outline" cx="0" cy="0" r="25" fill="#8DCC93" stroke="#5db665" stroke-width="2px" data-darkreader-inline-fill="" data-darkreader-inline-stroke="" style="--darkreader-inline-fill:#326944; --darkreader-inline-stroke:#6bb973;"/><text text-anchor="middle" pointer-events="none" font-family="sans-serif" dy="1.5625" font-size="25" fill="#2A2C34" data-darkreader-inline-fill="" style="--darkreader-inline-fill:#c6c2bc;"/><text text-anchor="middle" pointer-events="none" x="0" y="5" font-size="10px" fill="#2A2C34" data-darkreader-inline-fill="" style="--darkreader-inline-fill:#c6c2bc;" font-family="sans-serif"> 糜夫人</text></g><g class="node" transform="translate(81.44973754479744,-73.2053172342891)"><circle class="outline" cx="0" cy="0" r="25" fill="#8DCC93" stroke="#5db665" stroke-width="2px" data-darkreader-inline-fill="" data-darkreader-inline-stroke="" style="--darkreader-inline-fill:#326944; --darkreader-inline-stroke:#6bb973;"/><text text-anchor="middle" pointer-events="none" font-family="sans-serif" dy="1.5625" font-size="25" fill="#2A2C34" data-darkreader-inline-fill="" style="--darkreader-inline-fill:#c6c2bc;"/><text text-anchor="middle" pointer-events="none" x="0" y="5" font-size="10px" fill="#2A2C34" data-darkreader-inline-fill="" style="--darkreader-inline-fill:#c6c2bc;" font-family="sans-serif"> 刘封</text></g><g class="node" transform="translate(-22.787247620236798,8.52028924872363)"><circle class="outline" cx="0" cy="0" r="25" fill="#8DCC93" stroke="#5db665" stroke-width="2px" data-darkreader-inline-fill="" data-darkreader-inline-stroke="" style="--darkreader-inline-fill:#326944; --darkreader-inline-stroke:#6bb973;"/><text text-anchor="middle" pointer-events="none" font-family="sans-serif" dy="1.5625" font-size="25" fill="#2A2C34" data-darkreader-inline-fill="" style="--darkreader-inline-fill:#c6c2bc;"/><text text-anchor="middle" pointer-events="none" x="0" y="5" font-size="10px" fill="#2A2C34" data-darkreader-inline-fill="" style="--darkreader-inline-fill:#c6c2bc;" font-family="sans-serif"> 刘永</text></g><g class="node" transform="translate(24.92904310085355,-38.37721440721741)"><circle class="outline" cx="0" cy="0" r="25" fill="#8DCC93" stroke="#5db665" stroke-width="2px" data-darkreader-inline-fill="" data-darkreader-inline-stroke="" style="--darkreader-inline-fill:#326944; --darkreader-inline-stroke:#6bb973;"/><text text-anchor="middle" pointer-events="none" font-family="sans-serif" dy="1.5625" font-size="25" fill="#2A2C34" data-darkreader-inline-fill="" style="--darkreader-inline-fill:#c6c2bc;"/><text text-anchor="middle" pointer-events="none" x="0" y="5" font-size="10px" fill="#2A2C34" data-darkreader-inline-fill="" style="--darkreader-inline-fill:#c6c2bc;" font-family="sans-serif"> 徐庶</text></g><g class="node" transform="translate(2.7362001195621564,76.145005670775)"><circle class="outline" cx="0" cy="0" r="25" fill="#8DCC93" stroke="#5db665" stroke-width="2px" data-darkreader-inline-fill="" data-darkreader-inline-stroke="" style="--darkreader-inline-fill:#326944; --darkreader-inline-stroke:#6bb973;"/><text text-anchor="middle" pointer-events="none" font-family="sans-serif" dy="1.5625" font-size="25" fill="#2A2C34" data-darkreader-inline-fill="" style="--darkreader-inline-fill:#c6c2bc;"/><text text-anchor="middle" pointer-events="none" x="0" y="5" font-size="10px" fill="#2A2C34" data-darkreader-inline-fill="" style="--darkreader-inline-fill:#c6c2bc;" font-family="sans-serif"> 刘谌</text></g><g class="node" transform="translate(41.873168545046425,26.80948111564217)"><circle class="outline" cx="0" cy="0" r="25" fill="#8DCC93" stroke="#5db665" stroke-width="2px" data-darkreader-inline-fill="" data-darkreader-inline-stroke="" style="--darkreader-inline-fill:#326944; --darkreader-inline-stroke:#6bb973;"/><text text-anchor="middle" pointer-events="none" font-family="sans-serif" dy="1.5625" font-size="25" fill="#2A2C34" data-darkreader-inline-fill="" style="--darkreader-inline-fill:#c6c2bc;"/><text text-anchor="middle" pointer-events="none" x="0" y="5" font-size="10px" fill="#2A2C34" data-darkreader-inline-fill="" style="--darkreader-inline-fill:#c6c2bc;" font-family="sans-serif"> 马超</text></g><g class="node" transform="translate(-48.23414475224133,137.3351706721579)"><circle class="outline" cx="0" cy="0" r="25" fill="#8DCC93" stroke="#5db665" stroke-width="2px" data-darkreader-inline-fill="" data-darkreader-inline-stroke="" style="--darkreader-inline-fill:#326944; --darkreader-inline-stroke:#6bb973;"/><text text-anchor="middle" pointer-events="none" font-family="sans-serif" dy="1.5625" font-size="25" fill="#2A2C34" data-darkreader-inline-fill="" style="--darkreader-inline-fill:#c6c2bc;"/><text text-anchor="middle" pointer-events="none" x="0" y="5" font-size="10px" fill="#2A2C34" data-darkreader-inline-fill="" style="--darkreader-inline-fill:#c6c2bc;" font-family="sans-serif"> 诸葛亮</text></g><g class="node" transform="translate(415.2639871592946,185.81653870889656)"><circle class="outline" cx="0" cy="0" r="25" fill="#8DCC93" stroke="#5db665" stroke-width="2px" data-darkreader-inline-fill="" data-darkreader-inline-stroke="" style="--darkreader-inline-fill:#326944; --darkreader-inline-stroke:#6bb973;"/><text text-anchor="middle" pointer-events="none" font-family="sans-serif" dy="1.5625" font-size="25" fill="#2A2C34" data-darkreader-inline-fill="" style="--darkreader-inline-fill:#c6c2bc;"/><text text-anchor="middle" pointer-events="none" x="0" y="5" font-size="10px" fill="#2A2C34" data-darkreader-inline-fill="" style="--darkreader-inline-fill:#c6c2bc;" font-family="sans-serif"> 张绍</text></g><g class="node" transform="translate(433.4751093721738,128.65370988312154)"><circle class="outline" cx="0" cy="0" r="25" fill="#8DCC93" stroke="#5db665" stroke-width="2px" data-darkreader-inline-fill="" data-darkreader-inline-stroke="" style="--darkreader-inline-fill:#326944; --darkreader-inline-stroke:#6bb973;"/><text text-anchor="middle" pointer-events="none" font-family="sans-serif" dy="1.5625" font-size="25" fill="#2A2C34" data-darkreader-inline-fill="" style="--darkreader-inline-fill:#c6c2bc;"/><text text-anchor="middle" pointer-events="none" x="0" y="5" font-size="10px" fill="#2A2C34" data-darkreader-inline-fill="" style="--darkreader-inline-fill:#c6c2bc;" font-family="sans-serif"> 张遵</text></g><g class="node" transform="translate(392.048664062448,21.82163528636603)"><circle class="outline" cx="0" cy="0" r="25" fill="#8DCC93" stroke="#5db665" stroke-width="2px" data-darkreader-inline-fill="" data-darkreader-inline-stroke="" style="--darkreader-inline-fill:#326944; --darkreader-inline-stroke:#6bb973;"/><text text-anchor="middle" pointer-events="none" font-family="sans-serif" dy="1.5625" font-size="25" fill="#2A2C34" data-darkreader-inline-fill="" style="--darkreader-inline-fill:#c6c2bc;"/><text text-anchor="middle" pointer-events="none" x="0" y="5" font-size="10px" fill="#2A2C34" data-darkreader-inline-fill="" style="--darkreader-inline-fill:#c6c2bc;" font-family="sans-serif"> 张皇后</text></g><g class="node" transform="translate(396.2123594108479,81.64995690601373)"><circle class="outline" cx="0" cy="0" r="25" fill="#8DCC93" stroke="#5db665" stroke-width="2px" data-darkreader-inline-fill="" data-darkreader-inline-stroke="" style="--darkreader-inline-fill:#326944; --darkreader-inline-stroke:#6bb973;"/><text text-anchor="middle" pointer-events="none" font-family="sans-serif" dy="1.5625" font-size="25" fill="#2A2C34" data-darkreader-inline-fill="" style="--darkreader-inline-fill:#c6c2bc;"/><text text-anchor="middle" pointer-events="none" x="0" y="5" font-size="10px" fill="#2A2C34" data-darkreader-inline-fill="" style="--darkreader-inline-fill:#c6c2bc;" font-family="sans-serif"> 张苞</text></g><g class="node" transform="translate(381.10155573622677,237.53212450893525)"><circle class="outline" cx="0" cy="0" r="25" fill="#8DCC93" stroke="#5db665" stroke-width="2px" data-darkreader-inline-fill="" data-darkreader-inline-stroke="" style="--darkreader-inline-fill:#326944; --darkreader-inline-stroke:#6bb973;"/><text text-anchor="middle" pointer-events="none" font-family="sans-serif" dy="1.5625" font-size="25" fill="#2A2C34" data-darkreader-inline-fill="" style="--darkreader-inline-fill:#c6c2bc;"/><text text-anchor="middle" pointer-events="none" x="0" y="5" font-size="10px" fill="#2A2C34" data-darkreader-inline-fill="" style="--darkreader-inline-fill:#c6c2bc;" font-family="sans-serif"> 夏侯兰</text></g><g class="node" transform="translate(334.4437627507919,5.058918262079598)"><circle class="outline" cx="0" cy="0" r="25" fill="#8DCC93" stroke="#5db665" stroke-width="2px" data-darkreader-inline-fill="" data-darkreader-inline-stroke="" style="--darkreader-inline-fill:#326944; --darkreader-inline-stroke:#6bb973;"/><text text-anchor="middle" pointer-events="none" font-family="sans-serif" dy="1.5625" font-size="25" fill="#2A2C34" data-darkreader-inline-fill="" style="--darkreader-inline-fill:#c6c2bc;"/><text text-anchor="middle" pointer-events="none" x="0" y="5" font-size="10px" fill="#2A2C34" data-darkreader-inline-fill="" style="--darkreader-inline-fill:#c6c2bc;" font-family="sans-serif"> 敬哀皇后</text></g><g class="node" transform="translate(-56.705821780750156,68.27009990963222)"><circle class="outline" cx="0" cy="0" r="25" fill="#8DCC93" stroke="#5db665" stroke-width="2px" data-darkreader-inline-fill="" data-darkreader-inline-stroke="" style="--darkreader-inline-fill:#326944; --darkreader-inline-stroke:#6bb973;"/><text text-anchor="middle" pointer-events="none" font-family="sans-serif" dy="1.5625" font-size="25" fill="#2A2C34" data-darkreader-inline-fill="" style="--darkreader-inline-fill:#c6c2bc;"/><text text-anchor="middle" pointer-events="none" x="0" y="5" font-size="10px" fill="#2A2C34" data-darkreader-inline-fill="" style="--darkreader-inline-fill:#c6c2bc;" font-family="sans-serif"> 田豫</text></g><g class="node" transform="translate(167.44073230050418,416.05939970234783)"><circle class="outline" cx="0" cy="0" r="25" fill="#8DCC93" stroke="#5db665" stroke-width="2px" data-darkreader-inline-fill="" data-darkreader-inline-stroke="" style="--darkreader-inline-fill:#326944; --darkreader-inline-stroke:#6bb973;"/><text text-anchor="middle" pointer-events="none" font-family="sans-serif" dy="1.5625" font-size="25" fill="#2A2C34" data-darkreader-inline-fill="" style="--darkreader-inline-fill:#c6c2bc;"/><text text-anchor="middle" pointer-events="none" x="0" y="5" font-size="10px" fill="#2A2C34" data-darkreader-inline-fill="" style="--darkreader-inline-fill:#c6c2bc;" font-family="sans-serif"> 貂蝉</text></g><g class="node" transform="translate(-10.621033401009445,197.55790726298594)"><circle class="outline" cx="0" cy="0" r="25" fill="#8DCC93" stroke="#5db665" stroke-width="2px" data-darkreader-inline-fill="" data-darkreader-inline-stroke="" style="--darkreader-inline-fill:#326944; --darkreader-inline-stroke:#6bb973;"/><text text-anchor="middle" pointer-events="none" font-family="sans-serif" dy="1.5625" font-size="25" fill="#2A2C34" data-darkreader-inline-fill="" style="--darkreader-inline-fill:#c6c2bc;"/><text text-anchor="middle" pointer-events="none" x="0" y="5" font-size="10px" fill="#2A2C34" data-darkreader-inline-fill="" style="--darkreader-inline-fill:#c6c2bc;" font-family="sans-serif"> 孙尚香</text></g><g class="node" transform="translate(12.966105555060823,142.39517060130618)"><circle class="outline" cx="0" cy="0" r="25" fill="#8DCC93" stroke="#5db665" stroke-width="2px" data-darkreader-inline-fill="" data-darkreader-inline-stroke="" style="--darkreader-inline-fill:#326944; --darkreader-inline-stroke:#6bb973;"/><text text-anchor="middle" pointer-events="none" font-family="sans-serif" dy="1.5625" font-size="25" fill="#2A2C34" data-darkreader-inline-fill="" style="--darkreader-inline-fill:#c6c2bc;"/><text text-anchor="middle" pointer-events="none" x="0" y="5" font-size="10px" fill="#2A2C34" data-darkreader-inline-fill="" style="--darkreader-inline-fill:#c6c2bc;" font-family="sans-serif"> 大乔</text></g><g class="node" transform="translate(93.83822483203542,-14.528787366163602)"><circle class="outline" cx="0" cy="0" r="25" fill="#8DCC93" stroke="#5db665" stroke-width="2px" data-darkreader-inline-fill="" data-darkreader-inline-stroke="" style="--darkreader-inline-fill:#326944; --darkreader-inline-stroke:#6bb973;"/><text text-anchor="middle" pointer-events="none" font-family="sans-serif" dy="1.5625" font-size="25" fill="#2A2C34" data-darkreader-inline-fill="" style="--darkreader-inline-fill:#c6c2bc;"/><text text-anchor="middle" pointer-events="none" x="0" y="5" font-size="10px" fill="#2A2C34" data-darkreader-inline-fill="" style="--darkreader-inline-fill:#c6c2bc;" font-family="sans-serif"> 甘夫人</text></g><g class="node" transform="translate(163.30979127703,-7.371599869967025)"><circle class="outline" cx="0" cy="0" r="25" fill="#8DCC93" stroke="#5db665" stroke-width="2px" data-darkreader-inline-fill="" data-darkreader-inline-stroke="" style="--darkreader-inline-fill:#326944; --darkreader-inline-stroke:#6bb973;"/><text text-anchor="middle" pointer-events="none" font-family="sans-serif" dy="1.5625" font-size="25" fill="#2A2C34" data-darkreader-inline-fill="" style="--darkreader-inline-fill:#c6c2bc;"/><text text-anchor="middle" pointer-events="none" x="0" y="5" font-size="10px" fill="#2A2C34" data-darkreader-inline-fill="" style="--darkreader-inline-fill:#c6c2bc;" font-family="sans-serif"> 刘禅</text></g><g class="node" transform="translate(150.01315448634986,-67.83521416445552)"><circle class="outline" cx="0" cy="0" r="25" fill="#8DCC93" stroke="#5db665" stroke-width="2px" data-darkreader-inline-fill="" data-darkreader-inline-stroke="" style="--darkreader-inline-fill:#326944; --darkreader-inline-stroke:#6bb973;"/><text text-anchor="middle" pointer-events="none" font-family="sans-serif" dy="1.5625" font-size="25" fill="#2A2C34" data-darkreader-inline-fill="" style="--darkreader-inline-fill:#c6c2bc;"/><text text-anchor="middle" pointer-events="none" x="0" y="5" font-size="10px" fill="#2A2C34" data-darkreader-inline-fill="" style="--darkreader-inline-fill:#c6c2bc;" font-family="sans-serif"> 孙权</text></g></g></svg>